<svg width="109" height="94" viewBox="0 0 109 94" fill="none" xmlns="http://www.w3.org/2000/svg">
<path d="M22.565 19.672C21.883 19.7753 21.3767 19.951 21.046 20.199C20.736 20.447 20.519 20.8397 20.395 21.377C20.2917 21.9143 20.24 22.71 20.24 23.764V41.062L19.496 41.031L18.659 41.062L5.20503 24.012V35.916C5.20503 37.1353 5.26703 38.0343 5.39103 38.613C5.51503 39.171 5.7837 39.5843 6.19703 39.853C6.61036 40.101 7.28203 40.2767 8.21203 40.38V41C7.40603 40.938 6.29003 40.907 4.86403 40.907C3.72736 40.907 2.82836 40.938 2.16703 41V40.38C2.84903 40.2767 3.34503 40.101 3.65503 39.853C3.9857 39.605 4.2027 39.2123 4.30603 38.675C4.43003 38.1377 4.49203 37.342 4.49203 36.288V22.338C4.49203 21.5527 4.43003 20.9843 4.30603 20.633C4.2027 20.2817 3.9857 20.044 3.65503 19.92C3.34503 19.796 2.84903 19.7133 2.16703 19.672V19.052C2.82836 19.114 3.72736 19.145 4.86403 19.145C5.89736 19.145 6.78603 19.114 7.53003 19.052L19.527 33.839V24.136C19.527 22.9167 19.465 22.028 19.341 21.47C19.217 20.8913 18.9484 20.478 18.535 20.23C18.1217 19.9613 17.45 19.7753 16.52 19.672V19.052C17.326 19.114 18.442 19.145 19.868 19.145C21.0254 19.145 21.9244 19.114 22.565 19.052V19.672ZM35.5492 18.618C37.7399 18.618 39.6515 19.0623 41.2842 19.951C42.9375 20.8397 44.2189 22.1313 45.1282 23.826C46.0375 25.5 46.4922 27.5047 46.4922 29.84C46.4922 32.1133 46.0272 34.1283 45.0972 35.885C44.1672 37.6417 42.8652 39.0057 41.1912 39.977C39.5379 40.9483 37.6469 41.434 35.5182 41.434C33.3275 41.434 31.4055 40.9897 29.7522 40.101C28.1195 39.2123 26.8485 37.931 25.9392 36.257C25.0299 34.5623 24.5752 32.5473 24.5752 30.212C24.5752 27.9387 25.0402 25.9237 25.9702 24.167C26.9002 22.4103 28.1919 21.0463 29.8452 20.075C31.5192 19.1037 33.4205 18.618 35.5492 18.618ZM35.4252 19.176C34.2885 19.176 33.2862 19.641 32.4182 20.571C31.5502 21.4803 30.8785 22.7617 30.4032 24.415C29.9485 26.0683 29.7212 27.9593 29.7212 30.088C29.7212 32.2373 29.9795 34.1283 30.4962 35.761C31.0335 37.3937 31.7465 38.6543 32.6352 39.543C33.5445 40.4317 34.5469 40.876 35.6422 40.876C36.7789 40.876 37.7812 40.4213 38.6492 39.512C39.5172 38.582 40.1785 37.2903 40.6332 35.637C41.1085 33.9837 41.3462 32.0927 41.3462 29.964C41.3462 27.8147 41.0775 25.9237 40.5402 24.291C40.0235 22.6583 39.3105 21.3977 38.4012 20.509C37.5125 19.6203 36.5205 19.176 35.4252 19.176ZM59.672 29.468C62.3587 29.6747 64.3324 30.2947 65.593 31.328C66.8537 32.3613 67.484 33.5807 67.484 34.986C67.484 36.908 66.7297 38.396 65.221 39.45C63.7124 40.4833 61.6147 41 58.928 41C58.3287 41 57.8224 40.9897 57.409 40.969C56.045 40.9277 54.712 40.907 53.41 40.907C51.2814 40.907 49.69 40.938 48.636 41V40.38C49.318 40.3387 49.814 40.256 50.124 40.132C50.4547 40.008 50.6717 39.7703 50.775 39.419C50.899 39.0677 50.961 38.4993 50.961 37.714V22.338C50.961 21.5527 50.899 20.9843 50.775 20.633C50.6717 20.2817 50.4547 20.044 50.124 19.92C49.814 19.796 49.318 19.7133 48.636 19.672V19.052C49.69 19.114 51.2607 19.145 53.348 19.145L56.789 19.114C57.2024 19.0933 57.6777 19.083 58.215 19.083C60.695 19.083 62.586 19.5273 63.888 20.416C65.2107 21.3047 65.872 22.4827 65.872 23.95C65.872 25.1487 65.345 26.2647 64.291 27.298C63.2577 28.3313 61.718 29.034 59.672 29.406V29.468ZM57.812 19.672C57.254 19.672 56.8407 19.7443 56.572 19.889C56.324 20.0337 56.1484 20.292 56.045 20.664C55.9417 21.036 55.89 21.594 55.89 22.338V29.344H57.223C58.5664 29.344 59.5067 28.8893 60.044 27.98C60.5814 27.05 60.85 25.8203 60.85 24.291C60.85 22.741 60.602 21.5837 60.106 20.819C59.6307 20.0543 58.866 19.672 57.812 19.672ZM58.029 40.287C60.9017 40.287 62.338 38.4787 62.338 34.862C62.338 33.2293 61.9247 31.9893 61.098 31.142C60.2714 30.2947 58.9694 29.871 57.192 29.871H55.89V37.714C55.89 38.458 55.9417 39.0057 56.045 39.357C56.1484 39.7083 56.3447 39.9563 56.634 40.101C56.944 40.225 57.409 40.287 58.029 40.287ZM79.1383 19.672C78.3943 19.7133 77.8467 19.796 77.4953 19.92C77.1647 20.044 76.9373 20.2817 76.8133 20.633C76.6893 20.9843 76.6273 21.5527 76.6273 22.338V38.086C76.6273 38.7473 76.679 39.233 76.7823 39.543C76.8857 39.8323 77.0613 40.0287 77.3093 40.132C77.578 40.2353 78.0017 40.287 78.5803 40.287H80.0993C81.5047 40.287 82.7137 39.6567 83.7263 38.396C84.7597 37.1353 85.4313 35.4613 85.7413 33.374H86.4543C86.3923 34.0767 86.3613 34.986 86.3613 36.102C86.3613 38.086 86.4337 39.7187 86.5783 41C85.173 40.938 82.8067 40.907 79.4793 40.907C74.974 40.907 71.6053 40.938 69.3733 41V40.38C70.0553 40.3387 70.5513 40.256 70.8613 40.132C71.192 40.008 71.409 39.7703 71.5123 39.419C71.6363 39.0677 71.6983 38.4993 71.6983 37.714V22.338C71.6983 21.5527 71.6363 20.9843 71.5123 20.633C71.409 20.2817 71.192 20.044 70.8613 19.92C70.5513 19.796 70.0553 19.7133 69.3733 19.672V19.052C70.4273 19.114 72.06 19.145 74.2713 19.145C76.3793 19.145 78.0017 19.114 79.1383 19.052V19.672ZM105.313 36.288C105.313 38.1893 105.385 39.76 105.53 41C104.124 40.938 101.758 40.907 98.4305 40.907C93.9252 40.907 90.5565 40.938 88.3245 41V40.38C89.0065 40.3387 89.5025 40.256 89.8125 40.132C90.1432 40.008 90.3602 39.7703 90.4635 39.419C90.5875 39.0677 90.6495 38.4993 90.6495 37.714V22.338C90.6495 21.5527 90.5875 20.9843 90.4635 20.633C90.3602 20.2817 90.1432 20.044 89.8125 19.92C89.5025 19.796 89.0065 19.7133 88.3245 19.672V19.052C90.5565 19.114 93.9252 19.145 98.4305 19.145C101.469 19.145 103.628 19.114 104.91 19.052C104.765 20.7673 104.693 22.2967 104.693 23.64C104.693 24.5493 104.724 25.252 104.786 25.748H104.073C103.763 23.5367 103.205 21.9867 102.399 21.098C101.593 20.2093 100.456 19.765 98.9885 19.765H97.7175C97.0768 19.765 96.6118 19.8167 96.3225 19.92C96.0332 20.0233 95.8368 20.23 95.7335 20.54C95.6302 20.8293 95.5785 21.3047 95.5785 21.966V29.654H96.5705C97.6658 29.654 98.4925 29.251 99.0505 28.445C99.6292 27.639 100.032 26.678 100.26 25.562H100.973C100.911 26.43 100.88 27.4013 100.88 28.476V29.964C100.88 31.018 100.942 32.4853 101.066 34.366H100.353C99.9185 31.638 98.6578 30.274 96.5705 30.274H95.5785V38.086C95.5785 38.7473 95.6302 39.233 95.7335 39.543C95.8368 39.8323 96.0332 40.0287 96.3225 40.132C96.6118 40.2353 97.0768 40.287 97.7175 40.287H99.2365C100.704 40.287 101.882 39.791 102.771 38.799C103.68 37.7863 104.321 36.0813 104.693 33.684H105.406C105.344 34.366 105.313 35.234 105.313 36.288ZM23.8269 55.649C24.9016 55.649 25.7593 55.7523 26.3999 55.959C27.0406 56.1657 27.6916 56.4653 28.3529 56.858C28.5803 56.982 28.7766 57.0853 28.942 57.168C29.128 57.2507 29.283 57.292 29.4069 57.292C29.5929 57.292 29.7376 57.1887 29.8409 56.982C29.9443 56.7547 30.0269 56.4033 30.089 55.928H30.8019C30.6986 57.3127 30.6469 59.6687 30.6469 62.996H29.934C29.8513 61.88 29.593 60.8157 29.159 59.803C28.7456 58.7903 28.1463 57.974 27.361 57.354C26.5963 56.7133 25.6973 56.393 24.6639 56.393C23.6513 56.393 22.8246 56.6823 22.1839 57.261C21.5639 57.819 21.2539 58.5837 21.2539 59.555C21.2539 60.2783 21.4089 60.9087 21.7189 61.446C22.0289 61.9833 22.4629 62.4793 23.0209 62.934C23.5789 63.368 24.4366 63.9673 25.5939 64.732L26.586 65.414C27.8053 66.22 28.7663 66.9227 29.4689 67.522C30.1716 68.1213 30.7399 68.824 31.174 69.63C31.6286 70.4153 31.856 71.335 31.856 72.389C31.856 73.7117 31.515 74.8277 30.833 75.737C30.151 76.6257 29.2209 77.2973 28.0429 77.752C26.8856 78.2067 25.5939 78.434 24.1679 78.434C23.0106 78.434 22.0496 78.3307 21.2849 78.124C20.5203 77.9173 19.8176 77.6383 19.1769 77.287C18.7223 76.9977 18.3709 76.853 18.1229 76.853C17.9369 76.853 17.7923 76.9667 17.6889 77.194C17.5856 77.4007 17.5029 77.7417 17.4409 78.217H16.7279C16.8106 76.915 16.8519 74.125 16.8519 69.847H17.5649C17.7096 72.1617 18.2263 74.0423 19.1149 75.489C20.0036 76.915 21.3676 77.628 23.2069 77.628C24.3229 77.628 25.2426 77.3283 25.9659 76.729C26.6893 76.1297 27.0509 75.272 27.0509 74.156C27.0509 72.9987 26.6789 72.0067 25.935 71.18C25.1909 70.3533 24.0129 69.4233 22.4009 68.39C21.1609 67.584 20.1689 66.8813 19.4249 66.282C18.6809 65.6827 18.0713 64.98 17.5959 64.174C17.1206 63.3473 16.8829 62.3967 16.8829 61.322C16.8829 60.082 17.1929 59.0383 17.8129 58.191C18.4536 57.323 19.3009 56.6823 20.3549 56.269C21.4089 55.8557 22.5663 55.649 23.8269 55.649ZM53.0285 56.052C52.8838 58.0153 52.8115 59.772 52.8115 61.322C52.8115 62.2933 52.8425 63.0787 52.9045 63.678H52.1915C51.6955 61.136 51.0135 59.3483 50.1455 58.315C49.2981 57.2817 48.1305 56.765 46.6425 56.765H45.9295V74.466C45.9295 75.334 46.0121 75.9643 46.1775 76.357C46.3635 76.7497 46.6735 77.0183 47.1075 77.163C47.5621 77.287 48.2751 77.3593 49.2465 77.38V78C46.6425 77.938 44.6791 77.907 43.3565 77.907C42.0545 77.907 40.1635 77.938 37.6835 78V77.38C38.6548 77.3593 39.3575 77.287 39.7915 77.163C40.2461 77.0183 40.5561 76.7497 40.7215 76.357C40.9075 75.9643 41.0005 75.334 41.0005 74.466V56.765H40.3185C39.3265 56.765 38.4791 56.982 37.7765 57.416C37.0945 57.85 36.5055 58.5733 36.0095 59.586C35.5135 60.578 35.0898 61.942 34.7385 63.678H34.0255C34.0875 63.0787 34.1185 62.2933 34.1185 61.322C34.1185 59.772 34.0461 58.0153 33.9015 56.052C35.7821 56.114 38.9751 56.145 43.4805 56.145C47.9858 56.145 51.1685 56.114 53.0285 56.052ZM90.4336 56.114C91.3843 56.114 92.1696 56.083 92.7896 56.021V56.641C91.8389 57.0337 90.8469 58.2323 89.8136 60.237L86.1556 67.491V74.714C86.1556 75.4993 86.2073 76.0677 86.3106 76.419C86.4346 76.7703 86.6516 77.008 86.9616 77.132C87.2716 77.256 87.7779 77.3387 88.4806 77.38V78C87.3646 77.938 85.7733 77.907 83.7066 77.907C81.4953 77.907 79.8936 77.938 78.9016 78V77.38C79.5836 77.3387 80.0796 77.256 80.3896 77.132C80.7203 77.008 80.9373 76.7703 81.0406 76.419C81.1646 76.0677 81.2266 75.4993 81.2266 74.714V69.475L75.2436 58.408C74.6029 57.2507 74.0036 56.672 73.4456 56.672V56.021C74.3549 56.1243 75.5743 56.176 77.1036 56.176C79.0256 56.176 80.9683 56.1243 82.9316 56.021V56.672C82.2083 56.672 81.6296 56.7443 81.1956 56.889C80.7823 57.013 80.5756 57.2507 80.5756 57.602C80.5756 57.788 80.6479 58.0153 80.7926 58.284L85.5046 67.367L87.9226 62.531C88.7286 60.8983 89.1316 59.617 89.1316 58.687C89.1316 57.9843 88.9043 57.478 88.4496 57.168C88.0156 56.858 87.3853 56.6823 86.5586 56.641V56.021C87.9639 56.083 89.2556 56.114 90.4336 56.114Z" fill="#2D2525"/>
<path d="M64.1687 56.6418L69.5509 75.2435C69.7576 75.9567 69.9865 76.452 70.2375 76.7293C70.5033 76.9868 70.7396 77.1255 70.9463 77.1453V77.7396C70.5033 77.7 69.9791 77.6802 69.3737 77.6802C68.7831 77.6604 68.1851 77.6505 67.5796 77.6505C66.9004 77.6505 66.2581 77.6604 65.6527 77.6802C65.0473 77.6802 64.5674 77.6398 64.213 77.6794V77.1453C64.966 77.1057 65.4386 76.9373 65.6305 76.6402C65.8372 76.3232 65.7929 75.6596 65.4976 74.6492L61.7323 60.8317L62.131 60.0591L58.7643 71.8263C58.4394 72.9159 58.2401 73.8073 58.1663 74.5007C58.1072 75.194 58.1441 75.7289 58.277 76.1053C58.4247 76.4817 58.6535 76.7491 58.9636 76.9076C59.2885 77.0463 59.6724 77.1255 60.1154 77.1453V77.7396C59.6281 77.7 59.163 77.6802 58.72 77.6802C58.277 77.6604 57.8266 77.6505 57.3689 77.6505C57.044 77.6505 56.7339 77.6604 56.4386 77.6802C56.1581 77.6802 55.907 77.7 55.6855 77.7396V77.1453C55.9956 77.0661 56.3131 76.7986 56.638 76.343C56.9628 75.8874 57.2803 75.1148 57.5904 74.0252L62.6404 56.6418C62.8766 56.6617 63.1277 56.6716 63.3935 56.6716C63.674 56.6716 63.9324 56.6617 64.1687 56.6418ZM65.7191 69.1816V69.776H59.1187L59.3402 69.1816H65.7191Z" fill="#2D2525"/>
<path d="M63.8669 76.6986L64.1995 76.6809C64.5626 76.6618 64.8412 76.6124 65.0434 76.5404C65.2528 76.4657 65.3399 76.3812 65.3692 76.3359L65.3702 76.3341C65.3832 76.3142 65.4262 76.2226 65.4077 75.9455C65.3897 75.6764 65.3177 75.3046 65.1755 74.8183L65.1728 74.8083L63.9277 70.2397H59.5889L59.0873 71.9921L59.0857 71.9985C58.7652 73.0732 58.5773 73.9254 58.5091 74.5657C58.4551 75.2108 58.4974 75.6372 58.5871 75.8979C58.6924 76.1614 58.8508 76.3496 59.0792 76.4687C59.3644 76.5887 59.7119 76.6624 60.1269 76.6809L60.4615 76.6959V78.2325L60.0945 78.2026C59.6135 78.1635 59.1553 78.1441 58.72 78.1441H58.7142L58.7085 78.1437C58.2695 78.124 57.8231 78.1142 57.3691 78.1142C57.0495 78.1142 56.7449 78.1243 56.4559 78.1437L56.4475 78.1441H56.4387C56.1698 78.1441 55.9344 78.1631 55.7313 78.1994L55.3396 78.2697V76.7607L55.6208 76.6886C55.8332 76.6344 56.0898 76.4398 56.388 76.0217C56.6643 75.6341 56.9618 74.9317 57.267 73.8593L57.2681 73.8561L62.4099 56.157L62.662 56.1778C62.8903 56.197 63.134 56.2069 63.3934 56.2069V56.6712L63.1971 56.6693C63.0032 56.6656 62.8176 56.6561 62.6404 56.6412L57.5905 74.0248C57.2804 75.1144 56.9629 75.887 56.6381 76.3427L56.5167 76.5045C56.2341 76.8621 55.957 77.0754 55.6857 77.1448V77.7392C55.8518 77.7095 56.0345 77.6909 56.2339 77.6834L56.4387 77.6798C56.734 77.66 57.0443 77.6499 57.3691 77.6499L57.7108 77.6517C58.0513 77.6554 58.3877 77.6649 58.72 77.6798C59.1629 77.6798 59.6282 77.6402 60.1154 77.6798V77.1448C59.6725 77.125 59.2885 77.0458 58.9636 76.9072C58.6537 76.7487 58.4249 76.4813 58.2772 76.1051C58.1443 75.7287 58.1073 75.1937 58.1664 74.5004C58.2402 73.8071 58.4394 72.9153 58.7642 71.8257L59.351 69.7754H64.1697L65.4976 74.6487C65.7929 75.6589 65.8374 76.3227 65.6308 76.6397C65.4388 76.9368 64.9661 77.1052 64.213 77.1448V77.7392C64.4788 77.7095 64.8152 77.6909 65.2222 77.6834L65.6527 77.6798C66.2581 77.66 66.9006 77.6499 67.5798 77.6499L68.0324 77.6517C68.4837 77.6554 68.9308 77.6649 69.3738 77.6798C69.9791 77.6798 70.5034 77.6996 70.9464 77.7392V77.1448C70.7655 77.1274 70.5621 77.019 70.336 76.8197L70.2376 76.729C70.018 76.4863 69.8154 76.0766 69.6296 75.5002L69.5509 75.2431L64.1687 56.6412C63.9325 56.661 63.6739 56.6712 63.3934 56.6712V56.2069C63.668 56.2069 63.9192 56.1969 64.1471 56.1778L64.3999 56.157L69.8736 75.0749L69.9483 75.3198C70.1208 75.8539 70.2938 76.1849 70.4519 76.3631C70.6873 76.5885 70.8575 76.6709 70.971 76.6818L71.2924 76.7127V78.2357L70.9234 78.2026C70.4902 78.1639 69.974 78.1441 69.3738 78.1441H69.3653C68.7777 78.1244 68.1824 78.1142 67.5798 78.1142C66.9031 78.1142 66.2635 78.1244 65.6612 78.1441H65.6527C65.0513 78.1441 64.5822 78.1636 64.2417 78.2017L63.8669 78.2439V76.6986ZM64.0078 69.1814H59.521L61.8188 61.1491L64.0078 69.1814ZM60.0245 68.7171H63.5131L61.811 62.4722L60.0245 68.7171Z" fill="#FFFEFD"/>
<path d="M61.9764 54.828C62.5234 53.7983 63.6607 53.7869 64.219 54.8055L67.7119 61.1778C68.3813 62.3991 67.7369 64.1239 66.607 64.1352L59.6926 64.2045C58.5626 64.2158 57.8991 62.5041 58.5549 61.2695L61.9764 54.828Z" fill="#2D2525"/>
<path d="M61.9764 54.8277C62.5233 53.7981 63.6607 53.7867 64.2191 54.8053L67.7117 61.1777C68.3602 62.3608 67.7759 64.0164 66.7115 64.1291L66.6068 64.1352L66.6042 63.6709C67.4517 63.6624 67.9351 62.3685 67.4331 61.4525L63.9401 55.0806C63.5213 54.3166 62.6686 54.3252 62.2584 55.0974L58.8367 61.5387C58.3449 62.4646 58.8425 63.7485 59.6899 63.7401L59.6924 64.2044L59.588 64.2005C58.5568 64.1121 57.959 62.5699 58.4972 61.3865L58.555 61.2694L61.9764 54.8277ZM66.6042 63.6709L66.6068 64.1352L59.6924 64.2044L59.6899 63.7401L66.6042 63.6709Z" fill="#BFADA8"/>
<path d="M58.6557 62.3574V77.6793H58.3096V62.3574H58.6557ZM67.9043 62.3574L67.9998 77.6793H67.6537V62.3574H67.9043Z" fill="#BFADA8"/>
<path d="M59.2516 67.0605L60.9 74.7215H57.6031L59.2516 67.0605Z" fill="#2D2525"/>
<path d="M58.635 62.3574H67.6309L68.0774 77.6793H58.041L58.635 62.3574Z" fill="#2D2525"/>
<path d="M67.3845 74.0249H68.4228V77.6604L68.0774 77.6791H67.3845V74.0249Z" fill="#2D2525"/>
<path d="M58.041 73.9651H58.3871V77.6795H58.041V73.9651Z" fill="#2D2525"/>
<path d="M67.5575 67.0605L69.2059 74.7215H65.9091L67.5575 67.0605Z" fill="#2D2525"/>
<path d="M61.3958 64.7393V64.275H67.6252V64.7393H61.3958Z" fill="#6FB39A"/>
<path d="M61.3956 74.4894L61.3956 74.0251L69.1149 74.0252L69.1149 74.4895L61.3956 74.4894Z" fill="#6FB39A"/>
<path d="M63.8184 66.5963C63.8184 67.1092 63.5085 67.5249 63.1262 67.5249C62.744 67.5249 62.4341 67.1092 62.4341 66.5963C62.4341 66.0835 62.744 65.6677 63.1262 65.6677C63.5085 65.6677 63.8184 66.0835 63.8184 66.5963Z" fill="#6FB39A"/>
<path d="M63.9915 67.9288C63.9915 67.4159 63.6816 67.0002 63.2994 67.0002C62.9171 67.0002 62.6072 67.4159 62.6072 67.9288C62.6072 68.4416 62.9171 68.8574 63.2994 68.8574V69.3217C62.7259 69.3217 62.2611 68.6981 62.2611 67.9288C62.2611 67.1595 62.7259 66.5359 63.2994 66.5359C63.8728 66.5359 64.3376 67.1595 64.3376 67.9288C64.3376 68.6981 63.8728 69.3217 63.2994 69.3217V68.8574C63.6816 68.8574 63.9915 68.4416 63.9915 67.9288Z" fill="#6FB39A"/>
</svg>
