<svg width="318" height="100" viewBox="0 0 318 100" fill="none" xmlns="http://www.w3.org/2000/svg">
<path d="M301.897 7.81763V9.09763C300.446 9.14029 299.337 9.31096 298.569 9.60963C297.843 9.86563 297.353 10.3776 297.097 11.1456C296.841 11.871 296.713 13.023 296.713 14.6016V47.1136C296.713 48.4363 296.798 49.4176 296.969 50.0576C297.182 50.6976 297.566 51.1243 298.121 51.3376C298.718 51.551 299.593 51.6576 300.745 51.6576H303.881C305.331 51.6576 306.697 51.3163 307.977 50.6336C309.257 49.951 310.409 48.991 311.433 47.7536C312.457 46.4736 313.31 44.959 313.993 43.2096C314.675 41.4603 315.187 39.519 315.529 37.3856H317.001C316.873 38.8363 316.809 40.7136 316.809 43.0176C316.809 43.999 316.83 45.4283 316.873 47.3056C316.915 49.183 317.043 51.1243 317.257 53.1296C315.081 53.0443 312.627 53.0016 309.897 53.0016C307.166 52.959 304.734 52.9376 302.601 52.9376C301.534 52.9376 300.169 52.9376 298.505 52.9376C296.841 52.9376 295.049 52.959 293.129 53.0016C291.209 53.0016 289.267 53.023 287.305 53.0656C285.342 53.0656 283.486 53.087 281.737 53.1296V51.8496C283.102 51.7643 284.126 51.5936 284.809 51.3376C285.491 51.0816 285.939 50.5696 286.153 49.8016C286.409 49.0336 286.537 47.8816 286.537 46.3456V14.6016C286.537 13.023 286.409 11.871 286.153 11.1456C285.939 10.3776 285.47 9.86563 284.745 9.60963C284.062 9.31096 283.059 9.14029 281.737 9.09763V7.81763C282.803 7.86029 284.233 7.90296 286.025 7.94563C287.859 7.98829 289.801 8.00962 291.849 8.00962C293.726 8.00962 295.561 7.98829 297.353 7.94563C299.187 7.90296 300.702 7.86029 301.897 7.81763Z" fill="#2D2525"/>
<path d="M260.477 7.81763C260.306 9.69496 260.178 11.5083 260.093 13.2576C260.05 15.007 260.029 16.351 260.029 17.2896C260.029 18.143 260.05 18.9536 260.093 19.7216C260.135 20.4896 260.178 21.1296 260.221 21.6416H258.749C258.322 18.527 257.661 16.0736 256.765 14.2816C255.869 12.447 254.695 11.167 253.245 10.4416C251.837 9.67362 250.173 9.28962 248.253 9.28962H245.629C244.391 9.28962 243.453 9.39629 242.813 9.60963C242.173 9.82296 241.746 10.2496 241.533 10.8896C241.319 11.5296 241.213 12.511 241.213 13.8336V47.1136C241.213 48.4363 241.319 49.4176 241.533 50.0576C241.746 50.6976 242.173 51.1243 242.813 51.3376C243.453 51.551 244.391 51.6576 245.629 51.6576H248.765C250.685 51.6576 252.37 51.2523 253.821 50.4416C255.314 49.5883 256.573 48.159 257.597 46.1536C258.663 44.1483 259.474 41.439 260.029 38.0256H261.501C261.373 39.391 261.309 41.183 261.309 43.4016C261.309 44.383 261.33 45.7696 261.373 47.5616C261.415 49.3536 261.543 51.2096 261.757 53.1296C259.581 53.0443 257.127 53.0016 254.397 53.0016C251.666 52.959 249.234 52.9376 247.101 52.9376C246.034 52.9376 244.669 52.9376 243.005 52.9376C241.341 52.9376 239.549 52.959 237.629 53.0016C235.709 53.0016 233.767 53.023 231.805 53.0656C229.842 53.0656 227.986 53.087 226.237 53.1296V51.8496C227.602 51.7643 228.626 51.5936 229.309 51.3376C229.991 51.0816 230.439 50.5696 230.653 49.8016C230.909 49.0336 231.037 47.8816 231.037 46.3456V14.6016C231.037 13.023 230.909 11.871 230.653 11.1456C230.439 10.3776 229.97 9.86563 229.245 9.60963C228.562 9.31096 227.559 9.14029 226.237 9.09763V7.81763C227.986 7.86029 229.842 7.90296 231.805 7.94563C233.767 7.94563 235.709 7.96696 237.629 8.00962C239.549 8.00962 241.341 8.00962 243.005 8.00962C244.669 8.00962 246.034 8.00962 247.101 8.00962C249.063 8.00962 251.282 8.00962 253.757 8.00962C256.274 7.96696 258.514 7.90296 260.477 7.81763ZM250.493 29.7056C250.493 29.7056 250.493 29.919 250.493 30.3456C250.493 30.7723 250.493 30.9856 250.493 30.9856H239.293C239.293 30.9856 239.293 30.7723 239.293 30.3456C239.293 29.919 239.293 29.7056 239.293 29.7056H250.493ZM252.349 21.2576C252.178 23.6896 252.093 25.5456 252.093 26.8256C252.135 28.1056 252.157 29.279 252.157 30.3456C252.157 31.4123 252.178 32.5856 252.221 33.8656C252.263 35.1456 252.37 37.0016 252.541 39.4336H251.069C250.855 37.9403 250.45 36.5536 249.853 35.2736C249.298 33.9936 248.487 32.9696 247.421 32.2016C246.354 31.391 244.967 30.9856 243.261 30.9856V29.7056C244.541 29.7056 245.629 29.4496 246.525 28.9376C247.421 28.383 248.146 27.679 248.701 26.8256C249.298 25.9296 249.767 24.991 250.109 24.0096C250.45 23.0283 250.706 22.111 250.877 21.2576H252.349Z" fill="#2D2525"/>
<path d="M208.961 7.81763C208.79 9.99363 208.662 12.0843 208.577 14.0896C208.534 16.095 208.513 17.631 208.513 18.6976C208.513 19.6363 208.534 20.5323 208.577 21.3856C208.62 22.239 208.662 22.9643 208.705 23.5616H207.233C206.55 19.9776 205.676 17.1403 204.609 15.0496C203.585 12.959 202.348 11.487 200.897 10.6336C199.446 9.73762 197.74 9.28962 195.777 9.28962H194.305V45.8336C194.305 47.5403 194.476 48.8203 194.817 49.6736C195.201 50.527 195.884 51.103 196.865 51.4016C197.846 51.6576 199.276 51.807 201.153 51.8496V53.1296C199.83 53.087 198.06 53.0443 195.841 53.0016C193.665 52.959 191.382 52.9376 188.993 52.9376C186.646 52.9376 184.428 52.959 182.337 53.0016C180.246 53.0443 178.561 53.087 177.281 53.1296V51.8496C179.201 51.807 180.652 51.6576 181.633 51.4016C182.614 51.103 183.276 50.527 183.617 49.6736C183.958 48.8203 184.129 47.5403 184.129 45.8336V9.28962H182.721C180.758 9.28962 179.052 9.73762 177.601 10.6336C176.15 11.487 174.913 12.959 173.889 15.0496C172.865 17.0976 171.969 19.935 171.201 23.5616H169.729C169.814 22.9643 169.857 22.239 169.857 21.3856C169.9 20.5323 169.921 19.6363 169.921 18.6976C169.921 17.631 169.878 16.095 169.793 14.0896C169.75 12.0843 169.644 9.99363 169.473 7.81763C171.436 7.86029 173.569 7.90296 175.873 7.94563C178.22 7.98829 180.566 8.00962 182.913 8.00962C185.26 8.00962 187.372 8.00962 189.249 8.00962C191.169 8.00962 193.281 8.00962 195.585 8.00962C197.932 8.00962 200.278 7.98829 202.625 7.94563C204.972 7.90296 207.084 7.86029 208.961 7.81763Z" fill="#2D2525"/>
<path d="M135.237 6.9856C137.754 6.9856 139.695 7.26293 141.061 7.8176C142.426 8.32959 143.599 8.88426 144.581 9.48159C145.093 9.78026 145.498 10.0149 145.797 10.1856C146.138 10.3136 146.458 10.3776 146.757 10.3776C147.183 10.3776 147.482 10.1429 147.653 9.6736C147.866 9.20426 148.037 8.50026 148.165 7.5616H149.637C149.594 8.37226 149.53 9.3536 149.445 10.5056C149.402 11.6149 149.359 13.0869 149.317 14.9216C149.317 16.7563 149.317 19.1669 149.317 22.1536H147.845C147.674 19.9349 147.162 17.7803 146.309 15.6896C145.455 13.5989 144.239 11.8923 142.661 10.5696C141.125 9.20426 139.226 8.5216 136.965 8.5216C134.917 8.5216 133.231 9.0976 131.909 10.2496C130.586 11.4016 129.925 13.0016 129.925 15.0496C129.925 16.7563 130.351 18.2283 131.205 19.4656C132.058 20.6603 133.295 21.8336 134.917 22.9856C136.581 24.1376 138.586 25.5243 140.933 27.1456C142.981 28.4683 144.815 29.7909 146.437 31.1136C148.058 32.4363 149.359 33.9296 150.341 35.5936C151.322 37.2576 151.813 39.2416 151.813 41.5456C151.813 44.3616 151.066 46.6869 149.573 48.5216C148.122 50.3563 146.202 51.7429 143.813 52.6816C141.423 53.5776 138.799 54.0256 135.941 54.0256C133.295 54.0256 131.183 53.7696 129.605 53.2576C128.026 52.7456 126.703 52.2123 125.637 51.6576C124.698 51.0603 123.973 50.7616 123.461 50.7616C123.034 50.7616 122.714 50.9963 122.501 51.4656C122.33 51.9349 122.181 52.6389 122.053 53.5776H120.581C120.666 52.5536 120.709 51.3589 120.709 49.9936C120.751 48.6283 120.773 46.8576 120.773 44.6816C120.815 42.4629 120.837 39.6683 120.837 36.2976H122.309C122.479 39.1136 122.949 41.7589 123.717 44.2336C124.527 46.6656 125.743 48.6283 127.365 50.1216C129.029 51.6149 131.226 52.3616 133.957 52.3616C135.45 52.3616 136.773 52.1056 137.925 51.5936C139.119 51.0389 140.079 50.2283 140.805 49.1616C141.53 48.0949 141.893 46.7723 141.893 45.1936C141.893 43.4016 141.466 41.8443 140.613 40.5216C139.802 39.1989 138.671 37.9616 137.221 36.8096C135.813 35.6576 134.17 34.4843 132.293 33.2896C130.287 31.9669 128.41 30.6443 126.661 29.3216C124.911 27.9989 123.503 26.4843 122.437 24.7776C121.413 23.0709 120.901 21.0443 120.901 18.6976C120.901 16.0096 121.562 13.8123 122.885 12.1056C124.25 10.3563 126.021 9.07626 128.197 8.26559C130.415 7.41226 132.762 6.9856 135.237 6.9856Z" fill="#2D2525"/>
<path d="M22.656 6.92163C25.472 6.92163 27.776 7.3483 29.568 8.20163C31.4027 9.0123 33.024 9.9723 34.432 11.0816C35.2853 11.7216 35.9253 11.807 36.352 11.3376C36.8213 10.8256 37.1413 9.6523 37.312 7.81763H38.784C38.6987 9.48163 38.6347 11.5083 38.592 13.8976C38.5493 16.2443 38.528 19.3803 38.528 23.3056H37.056C36.8427 21.343 36.5653 19.679 36.224 18.3136C35.8827 16.9056 35.4133 15.6683 34.816 14.6016C34.2187 13.535 33.3653 12.575 32.256 11.7216C31.1893 10.655 29.952 9.86563 28.544 9.35363C27.136 8.84163 25.664 8.58563 24.128 8.58563C21.824 8.58563 19.8613 9.2043 18.24 10.4416C16.6187 11.6363 15.296 13.279 14.272 15.3696C13.2907 17.4603 12.5653 19.8283 12.096 22.4736C11.6267 25.0763 11.392 27.7856 11.392 30.6016C11.392 33.4603 11.6267 36.2123 12.096 38.8576C12.608 41.4603 13.376 43.7856 14.4 45.8336C15.4667 47.8816 16.832 49.503 18.496 50.6976C20.16 51.8923 22.1227 52.4896 24.384 52.4896C25.792 52.4896 27.2 52.2336 28.608 51.7216C30.0587 51.167 31.296 50.3776 32.32 49.3536C33.984 48.0736 35.1147 46.495 35.712 44.6176C36.3093 42.6976 36.7573 40.159 37.056 37.0016H38.528C38.528 41.055 38.5493 44.3403 38.592 46.8576C38.6347 49.3323 38.6987 51.423 38.784 53.1296H37.312C37.1413 51.295 36.8427 50.143 36.416 49.6736C36.032 49.2043 35.3707 49.2683 34.432 49.8656C32.8533 50.975 31.168 51.9563 29.376 52.8096C27.6267 53.6203 25.3653 54.0256 22.592 54.0256C18.0693 54.0256 14.1013 53.1083 10.688 51.2736C7.31733 49.439 4.69333 46.7936 2.816 43.3376C0.938667 39.8816 0 35.7216 0 30.8576C0 26.079 0.96 21.8976 2.88 18.3136C4.84267 14.7296 7.50933 11.935 10.88 9.92963C14.2933 7.9243 18.2187 6.92163 22.656 6.92163Z" fill="#2D2525"/>
<path d="M74.3719 3.78326C75.9523 1.56552 79.2386 1.54098 80.8519 3.73487L90.9445 17.4593C92.8789 20.0898 91.0169 23.8046 87.7519 23.829L67.7728 23.9782C64.5078 24.0025 62.5906 20.316 64.4854 17.6569L74.3719 3.78326Z" fill="#2D2525"/>
<path d="M74.3718 3.783C75.9521 1.56531 79.2387 1.54073 80.852 3.7346L90.9441 17.4594C92.8179 20.0076 91.1296 23.5734 88.054 23.8161L87.7513 23.8292L87.7438 22.8292C90.1926 22.8109 91.5897 20.0242 90.1389 18.0514L80.0459 4.32755C78.8359 2.68214 76.3719 2.70054 75.1867 4.36384L65.2997 18.2369C63.8787 20.2311 65.3163 22.9964 67.7649 22.9784L67.7724 23.9783L67.4705 23.9699C64.4909 23.7796 62.7637 20.4579 64.3188 17.9092L64.4858 17.657L74.3718 3.783ZM87.7438 22.8292L87.7513 23.8292L67.7724 23.9783L67.7649 22.9784L87.7438 22.8292Z" fill="#BFADA8"/>
<path d="M63.6936 20.1296H91.6936V53.1296H63.6936V20.1296Z" fill="#2D2525"/>
<path d="M64.6936 20.1296V53.1296H63.6936V20.1296H64.6936ZM91.6936 20.1296V53.1296H90.6936V20.1296H91.6936Z" fill="#BFADA8"/>
<path d="M89.998 45.1296H92.998V53.1296H89.998V45.1296Z" fill="#2D2525"/>
<path d="M62.998 45.1296H65.998V53.1296H62.998V45.1296Z" fill="#2D2525"/>
<path d="M90.498 30.1296L95.2611 46.6296H85.7349L90.498 30.1296Z" fill="#2D2525"/>
<path d="M66.498 30.1296L71.2611 46.6296H61.7349L66.498 30.1296Z" fill="#2D2525"/>
<path d="M72.6936 25.1296V24.1296L90.6936 24.1296V25.1296L72.6936 25.1296Z" fill="#6FB39A"/>
<path d="M72.6934 46.1295L72.6934 45.1295L94.9981 45.1296L94.998 46.1296L72.6934 46.1295Z" fill="#6FB39A"/>
<path d="M79.6936 29.1296C79.6936 30.2342 78.7982 31.1296 77.6936 31.1296C76.589 31.1296 75.6936 30.2342 75.6936 29.1296C75.6936 28.0251 76.589 27.1296 77.6936 27.1296C78.7982 27.1296 79.6936 28.0251 79.6936 29.1296Z" fill="#6FB39A"/>
<path d="M79.6936 32.1296C79.6936 31.0251 78.7982 30.1296 77.6936 30.1296C76.589 30.1296 75.6936 31.0251 75.6936 32.1296C75.6936 33.2342 76.589 34.1296 77.6936 34.1296V35.1296C76.0367 35.1296 74.6936 33.7865 74.6936 32.1296C74.6936 30.4728 76.0367 29.1296 77.6936 29.1296C79.3505 29.1296 80.6936 30.4728 80.6936 32.1296C80.6936 33.7865 79.3505 35.1296 77.6936 35.1296V34.1296C78.7982 34.1296 79.6936 33.2342 79.6936 32.1296Z" fill="#6FB39A"/>
<path d="M80.7063 7.6897L96.2583 47.7537C96.8557 49.2897 97.517 50.3564 98.2423 50.9537C99.0103 51.5084 99.693 51.807 100.29 51.8497V53.1297C99.0103 53.0444 97.4957 53.0017 95.7463 53.0017C94.0397 52.959 92.3117 52.9377 90.5623 52.9377C88.5997 52.9377 86.7437 52.959 84.9943 53.0017C83.245 53.0017 81.8583 52.9147 80.8343 53V51.8497C83.0103 51.7644 84.3757 51.4017 84.9303 50.7617C85.5277 50.079 85.3997 48.6497 84.5463 46.4737L73.6663 16.7137L74.8183 15.0497L65.0903 40.3937C64.1517 42.7404 63.5757 44.6604 63.3623 46.1537C63.1917 47.647 63.2983 48.799 63.6823 49.6097C64.109 50.4204 64.7703 50.9964 65.6663 51.3377C66.605 51.6364 67.7143 51.807 68.9943 51.8497V53.1297C67.5863 53.0444 66.2423 53.0017 64.9623 53.0017C63.6823 52.959 62.381 52.9377 61.0583 52.9377C60.1197 52.9377 59.2237 52.959 58.3703 53.0017C57.5597 53.0017 56.8343 53.0444 56.1943 53.1297V51.8497C57.0903 51.679 58.0077 51.103 58.9463 50.1217C59.885 49.1404 60.8023 47.4764 61.6983 45.1297L76.2903 7.6897C76.973 7.73236 77.6983 7.7537 78.4663 7.7537C79.277 7.7537 80.0237 7.73236 80.7063 7.6897ZM85.1863 34.6977V35.9777H66.1143L66.7543 34.6977H85.1863Z" fill="#2D2525"/>
<path d="M79.834 50.8884L80.7949 50.8503C81.8442 50.8092 82.6491 50.7028 83.2334 50.5476C83.8384 50.3869 84.0901 50.2048 84.1748 50.1072L84.1777 50.1033C84.2152 50.0604 84.3396 49.8632 84.2861 49.2664C84.2341 48.6867 84.026 47.886 83.6152 46.8386L83.6074 46.8171L80.0098 36.9773H67.4727L66.0234 40.7517L66.0186 40.7654C65.0927 43.0802 64.5496 44.9154 64.3525 46.2947C64.1967 47.6841 64.3187 48.6025 64.5781 49.1638C64.8824 49.7313 65.3399 50.1367 66 50.3933C66.824 50.6516 67.828 50.8103 69.0273 50.8503L69.9941 50.8826V54.1921L68.9336 54.1277C67.5438 54.0435 66.2198 54.0017 64.9619 54.0017H64.9453L64.9287 54.0007C63.6604 53.9585 62.3703 53.9373 61.0586 53.9373C60.135 53.9373 59.2551 53.959 58.4199 54.0007L58.3955 54.0017H58.3701C57.5931 54.0017 56.9129 54.0426 56.3262 54.1208L55.1943 54.2722V51.0222L56.0068 50.8669C56.6206 50.75 57.3622 50.331 58.2236 49.4304C59.0221 48.5957 59.8818 47.0829 60.7637 44.7732L60.7666 44.7664L75.624 6.64624L76.3525 6.69116C77.012 6.73238 77.7163 6.75365 78.4658 6.75366V7.75366L77.8984 7.74976C77.3384 7.74176 76.8021 7.72121 76.29 7.68921L61.6982 45.1296C60.8022 47.4763 59.885 49.1405 58.9463 50.1218L58.5957 50.4705C57.779 51.2406 56.9784 51.7 56.1943 51.8494V53.1296C56.6743 53.0656 57.2023 53.0255 57.7783 53.0095L58.3701 53.0017C59.2235 52.959 60.1199 52.9373 61.0586 52.9373L62.0459 52.9412C63.0299 52.9492 64.0019 52.9697 64.9619 53.0017C66.2419 53.0017 67.5862 52.9164 68.9941 53.0017V51.8494C67.7142 51.8067 66.6046 51.6363 65.666 51.3376C64.7703 50.9964 64.1093 50.4204 63.6826 49.6101C63.2987 48.7995 63.1917 47.6472 63.3623 46.1541C63.5756 44.6607 64.1512 42.74 65.0898 40.3933L66.7852 35.9773H80.709L84.5459 46.4734C85.3991 48.6491 85.5277 50.0787 84.9307 50.7615C84.376 51.4015 83.01 51.764 80.834 51.8494V53.1296C81.6019 53.0656 82.5741 53.0255 83.75 53.0095L84.9941 53.0017C86.7435 52.959 88.5998 52.9373 90.5625 52.9373L91.8701 52.9412C93.1741 52.9492 94.4661 52.9697 95.7461 53.0017C97.4953 53.0017 99.0101 53.0443 100.29 53.1296V51.8494C99.7674 51.812 99.1797 51.5785 98.5264 51.1492L98.2422 50.9539C97.6075 50.4312 97.022 49.5488 96.4854 48.3074L96.2578 47.7537L80.7061 7.68921C80.0234 7.73187 79.2764 7.75366 78.4658 7.75366V6.75366C79.2592 6.75366 79.9851 6.73231 80.6436 6.69116L81.374 6.64624L97.1904 47.3914L97.4062 47.9187C97.9045 49.069 98.4045 49.7819 98.8613 50.1658C99.5414 50.6513 100.033 50.8288 100.361 50.8523L101.29 50.9187V54.199L100.224 54.1277C98.9721 54.0443 97.4805 54.0017 95.7461 54.0017H95.7217C94.0236 53.9593 92.3036 53.9373 90.5625 53.9373C88.607 53.9373 86.7589 53.9593 85.0186 54.0017H84.9941C83.2563 54.0017 81.9008 54.0437 80.917 54.1257L79.834 54.2166V50.8884ZM80.2412 34.698H67.2764L73.916 17.3982L80.2412 34.698ZM68.7314 33.698H78.8115L73.8936 20.2478L68.7314 33.698Z" fill="#FFFEFD"/>
<path d="M74.3719 3.78326C75.9523 1.56552 79.2386 1.54098 80.8519 3.73487L90.9445 17.4593C92.8789 20.0898 91.0169 23.8046 87.7519 23.829L67.7728 23.9782C64.5078 24.0025 62.5906 20.316 64.4854 17.6569L74.3719 3.78326Z" fill="#2D2525"/>
<path d="M74.3718 3.783C75.9521 1.56531 79.2387 1.54073 80.852 3.7346L90.9441 17.4594C92.8179 20.0076 91.1296 23.5734 88.054 23.8161L87.7513 23.8292L87.7438 22.8292C90.1926 22.8109 91.5897 20.0242 90.1389 18.0514L80.0459 4.32755C78.8359 2.68214 76.3719 2.70054 75.1867 4.36384L65.2997 18.2369C63.8787 20.2311 65.3163 22.9964 67.7649 22.9784L67.7724 23.9783L67.4705 23.9699C64.4909 23.7796 62.7637 20.4579 64.3188 17.9092L64.4858 17.657L74.3718 3.783ZM87.7438 22.8292L87.7513 23.8292L67.7724 23.9783L67.7649 22.9784L87.7438 22.8292Z" fill="#BFADA8"/>
<path d="M64.7761 20V53H63.7761V20H64.7761ZM91.5 20L91.7761 53H90.7761V20H91.5Z" fill="#BFADA8"/>
<path d="M66.498 30.1296L71.2611 46.6296H61.7349L66.498 30.1296Z" fill="#2D2525"/>
<path d="M64.7163 20H90.7101L92 53H63L64.7163 20Z" fill="#2D2525"/>
<path d="M89.998 45.1296H92.998V52.9597L92 52.9999H89.998V45.1296Z" fill="#2D2525"/>
<path d="M63 45H64V53H63V45Z" fill="#2D2525"/>
<path d="M90.498 30.1296L95.2611 46.6296H85.7349L90.498 30.1296Z" fill="#2D2525"/>
<path d="M72.6936 25.1296V24.1296L90.6936 24.1296V25.1296L72.6936 25.1296Z" fill="#6FB39A"/>
<path d="M72.6934 46.1295L72.6934 45.1295L94.9981 45.1296L94.998 46.1296L72.6934 46.1295Z" fill="#6FB39A"/>
<path d="M79.6936 29.1296C79.6936 30.2342 78.7982 31.1296 77.6936 31.1296C76.589 31.1296 75.6936 30.2342 75.6936 29.1296C75.6936 28.0251 76.589 27.1296 77.6936 27.1296C78.7982 27.1296 79.6936 28.0251 79.6936 29.1296Z" fill="#6FB39A"/>
<path d="M79.6936 32.1296C79.6936 31.0251 78.7982 30.1296 77.6936 30.1296C76.589 30.1296 75.6936 31.0251 75.6936 32.1296C75.6936 33.2342 76.589 34.1296 77.6936 34.1296V35.1296C76.0367 35.1296 74.6936 33.7865 74.6936 32.1296C74.6936 30.4728 76.0367 29.1296 77.6936 29.1296C79.3505 29.1296 80.6936 30.4728 80.6936 32.1296C80.6936 33.7865 79.3505 35.1296 77.6936 35.1296V34.1296C78.7982 34.1296 79.6936 33.2342 79.6936 32.1296Z" fill="#6FB39A"/>
<path d="M56.1897 52.8H100.293V53.3022H56.1897L56.1897 53.0743L56.1897 52.8Z" fill="#2D2525"/>
</svg>
